<?xml version="1.0" encoding="utf-8"?>

<!-- Uploaded to: SVG Repo, www.svgrepo.com, Generator: SVG Repo Mixer Tools -->
<svg version="1.1" id="Icons" xmlns="http://www.w3.org/2000/svg" xmlns:xlink="http://www.w3.org/1999/xlink" 
	 viewBox="0 0 32 32" xml:space="preserve">
<style type="text/css">
	.st0{fill:none;stroke:#000000;stroke-width:2;stroke-linecap:round;stroke-linejoin:round;stroke-miterlimit:10;}
</style>
<g>
	<path d="M14.5,24c-5.2,0-10.1,2.3-13.3,6.4c-0.2,0.3-0.3,0.7-0.1,1.1S1.6,32,2,32h25c0.4,0,0.7-0.2,0.9-0.6s0.1-0.8-0.1-1.1
		C24.6,26.3,19.7,24,14.5,24z"/>
	<path d="M30.1,5.7c-3-1.7-6.2-1.8-9-0.4c-1.5,0.8-2.7,1.9-3.6,3.4c-0.3-2.1-1.2-3.9-2.7-5.3c-2.3-2.1-5.6-2.8-9-1.8
		C5.5,1.7,5.2,1.9,5.1,2.3c-0.1,0.4,0,0.7,0.3,1l2.6,2.4c0.1,0.1,0.3,0.2,0.4,0.2l0.7,0.2c0,0.1,0,0.2,0,0.2c0,0.3,0.1,0.5,0.3,0.7
		l1.1,1c-0.2,0-0.4,0-0.7,0c-3.1,0-5.9,1.6-7.8,4.4c-0.2,0.3-0.2,0.7,0,1C2.3,13.8,2.6,14,3,14h3.6c0.2,0,0.3,0,0.4-0.1l0.7-0.4
		C7.9,13.8,8.2,14,8.6,14h6.7c0.7,2.7,0.5,5.5-0.7,8c2.4,0,4.8,0.5,7,1.4c0.4-3.2-0.2-6.5-1.9-9.4l-0.6-1l1.6-0.8
		c0.1-0.1,0.3-0.2,0.3-0.3l0.5-0.6c0.3,0.2,0.6,0.2,1,0L30,7.5c0.3-0.2,0.5-0.5,0.5-0.9C30.6,6.2,30.4,5.9,30.1,5.7z"/>
</g>
</svg>